# xmcd
#
# Track frame offsets:
#	150
#	21058
#	41183
#	63176
#	78364
#	95707
#	112318
#	130878
#	149047
#	164623
#	183420
#	201526
#	219612
#	240866
#	260747
#	278037
#	295999
#	312255
#	332503
#
# Disc length: 4722 seconds
#
# Revision: 7
# Processed by: cddbd v1.5.2PL0 Copyright (c) Steve Scherf et al.
# Submitted via: audiograbber 1.83.01
#
DISCID=2e127013
DTITLE=Various Artist - R&B Gold 3
DYEAR=2007
DGENRE=R&B
TTITLE0=Rihanna Feat Jay Z - Umbrella
TTITLE1=Ne Yo - Because of You
TTITLE2=Gwen Stefani - 4 In the Morning
TTITLE3=Mariah Carey - We Belong Together
TTITLE4=Chris Brown - Yo Excuse Me
TTITLE5=Usher - You Make Me Wanna
TTITLE6=Mary J Blige - Be Without You
TTITLE7=Mya - Case of the Ex
TTITLE8=B2K - Girlfriend
TTITLE9=TLC - Aint 2 Proud 2 Beg
TTITLE10=Bobby Brown - Every Little Step
TTITLE11=Outcast - Ms Jackson
TTITLE12=New Edition - You Dont Have to Worry
TTITLE13=Bell Biv Devoe - Poison
TTITLE14=Shanice - I Love Your Smile
TTITLE15=Macy Gray - I Try
TTITLE16=Another Level - Bomb Diggy
TTITLE17=Toni Braxton - UnBreak My Heart
TTITLE18=Shai - If I Ever Fall In Love
EXTD=
EXTT0=
EXTT1=
EXTT2=
EXTT3=
EXTT4=
EXTT5=
EXTT6=
EXTT7=
EXTT8=
EXTT9=
EXTT10=
EXTT11=
EXTT12=
EXTT13=
EXTT14=
EXTT15=
EXTT16=
EXTT17=
EXTT18=
PLAYORDER=
